<svg width="16" height="16" viewBox="0 0 16 16" fill="none" xmlns="http://www.w3.org/2000/svg">
<path fill-rule="evenodd" clip-rule="evenodd" d="M5.71661 1.26731C6.27854 1.03638 6.8902 0.953043 7.49343 1.02523C8.271 1.11448 8.96399 1.44522 9.5724 2.01688C9.5806 2.02465 9.59059 2.03025 9.60148 2.0332C9.61237 2.03616 9.62383 2.03636 9.63482 2.0338C10.4561 1.83197 11.246 1.90314 12.0037 2.2473L12.0405 2.2648L12.1303 2.30913C12.9219 2.71921 13.4894 3.34162 13.8324 4.17461C13.9946 4.57069 14.0763 4.98427 14.078 5.41476C14.0895 5.73532 14.0541 6.05583 13.973 6.36617C13.969 6.38199 13.9691 6.39856 13.9731 6.41436C13.9772 6.43015 13.9852 6.44467 13.9964 6.45659C14.4549 6.92151 14.7739 7.50579 14.9168 8.14298C15.1414 9.25189 14.911 10.2517 14.2268 11.1413L14.1206 11.2696C13.6675 11.7885 13.0726 12.1638 12.4091 12.3494C12.3946 12.3535 12.3814 12.3611 12.3704 12.3715C12.3594 12.3818 12.3511 12.3946 12.3461 12.4089C12.1974 12.8382 12.048 13.2045 11.7704 13.5708C11.071 14.4937 10.0426 15.007 8.88408 15.0006C7.96067 14.9959 7.14226 14.6582 6.42827 13.9879C6.41745 13.978 6.40423 13.971 6.38991 13.9678C6.37559 13.9645 6.36067 13.965 6.34661 13.9693C6.04444 14.0667 5.73995 14.0807 5.41095 14.0772C4.88534 14.0729 4.36763 13.9488 3.89722 13.7143C3.40483 13.4701 2.9762 13.1144 2.6454 12.6754C2.52698 12.5185 2.40973 12.3709 2.32398 12.1965C2.20572 11.9561 2.10909 11.7057 2.03524 11.4481C1.88018 10.8629 1.87676 10.2477 2.02532 9.6608C2.03012 9.64695 2.03172 9.63219 2.02999 9.61763C2.0271 9.60315 2.01951 9.59003 2.00841 9.5803C1.64883 9.21659 1.37396 8.77799 1.20341 8.29581C1.0905 7.99893 1.02495 7.68615 1.00917 7.36891C0.980957 6.95118 1.01796 6.5316 1.11883 6.12526C1.38133 5.2596 1.88241 4.58061 2.62206 4.0877C2.78656 3.97803 2.94289 3.89286 3.08989 3.8322C3.25672 3.7622 3.42414 3.70387 3.59214 3.65487C3.60415 3.6513 3.61509 3.64479 3.62395 3.63593C3.63281 3.62707 3.63932 3.61613 3.64289 3.60412C3.77028 3.14619 3.98938 2.71892 4.28688 2.34821C4.68354 1.85472 5.16012 1.49422 5.71661 1.26731ZM5.24762 5.84643C5.18249 5.73248 5.07476 5.64908 4.94813 5.61457C4.82151 5.58005 4.68636 5.59725 4.57242 5.66239C4.45848 5.72752 4.37507 5.83525 4.34056 5.96187C4.30605 6.0885 4.32325 6.22364 4.38838 6.33759L5.37653 8.06715L4.39188 9.72847C4.33151 9.84104 4.31697 9.97258 4.3513 10.0956C4.38563 10.2187 4.46617 10.3237 4.5761 10.3887C4.68603 10.4538 4.81685 10.4738 4.94122 10.4447C5.0656 10.4156 5.17391 10.3396 5.24354 10.2325L6.37519 8.32381C6.41982 8.24854 6.44371 8.16279 6.44443 8.07528C6.44515 7.98778 6.42267 7.90165 6.37927 7.82565L5.24762 5.84643ZM8.42442 9.48639C8.29839 9.49389 8.17998 9.54924 8.0934 9.64113C8.00682 9.73302 7.9586 9.8545 7.9586 9.98075C7.9586 10.107 8.00682 10.2285 8.0934 10.3204C8.17998 10.4123 8.29839 10.4676 8.42442 10.4751H11.2524C11.3794 10.469 11.4992 10.4141 11.5869 10.3221C11.6747 10.23 11.7236 10.1077 11.7236 9.98046C11.7236 9.85328 11.6747 9.73096 11.5869 9.63887C11.4992 9.54678 11.3794 9.49197 11.2524 9.4858H8.42442V9.48639Z" fill="url(#paint0_linear_1_38)"/>
<defs>
<linearGradient id="paint0_linear_1_38" x1="11" y1="1" x2="5" y2="14" gradientUnits="userSpaceOnUse">
<stop stop-color="#8CA0F9"/>
<stop offset="1" stop-color="#2C27F5"/>
</linearGradient>
</defs>
</svg>
