<svg width="16" height="16" viewBox="0 0 16 16" fill="none" xmlns="http://www.w3.org/2000/svg">
<path d="M6.92017 10.912C5.11539 10.6929 3.84383 9.39452 3.84383 7.7127C3.84383 7.02913 4.08974 6.29078 4.5 5.79896C4.32226 5.34791 4.34965 4.39043 4.55478 3.99417C5.10139 3.926 5.83974 4.2133 6.27739 4.60896C6.79661 4.44522 7.34383 4.36304 8.014 4.36304C8.68356 4.36304 9.23078 4.44522 9.72261 4.59557C10.1463 4.2127 10.8986 3.926 11.4452 3.99417C11.637 4.36304 11.6643 5.32052 11.486 5.78496C11.9243 6.30478 12.1562 7.00235 12.1562 7.7127C12.1562 9.39452 10.8846 10.6661 9.05304 10.8986C9.51748 11.1993 9.83217 11.8555 9.83217 12.6072V14.0291C9.83217 14.4394 10.1737 14.6719 10.5839 14.5076C13.0589 13.5641 15 11.0897 15 8.02739C15 4.15791 11.8555 1 7.98661 1C4.11652 1 1 4.15791 1 8.02739C1 11.0623 2.92774 13.5787 5.52565 14.5216C5.89452 14.6585 6.25 14.412 6.25 14.0431V12.9487C6.04199 13.0356 5.81925 13.0819 5.59383 13.085C4.69113 13.085 4.15791 12.5932 3.77565 11.6771C3.6253 11.3077 3.46096 11.0891 3.14626 11.0483C2.98191 11.0343 2.92774 10.9662 2.92774 10.884C2.92774 10.7197 3.20165 10.5973 3.47435 10.5973C3.87122 10.5973 4.2127 10.8432 4.56817 11.349C4.84209 11.7453 5.12878 11.923 5.47087 11.923C5.81235 11.923 6.03087 11.8001 6.34556 11.4854C6.57809 11.2535 6.75583 11.049 6.92017 10.912Z" fill="#17181C"/>
</svg>
