<?xml version="1.0" encoding="UTF-8"?>
<svg width="16px" height="16px" viewBox="0 0 16 16" version="1.1" xmlns="http://www.w3.org/2000/svg" xmlns:xlink="http://www.w3.org/1999/xlink">
    <title>github-light</title>
    <g id="github-light" stroke="none" fill="none" fill-rule="evenodd">
        <path d="M7.07443143,10.7711932 C5.52747714,10.5773102 4.43756857,9.42836529 4.43756857,7.94011185 C4.43756857,7.33521631 4.64834857,6.6818456 5,6.24663089 C4.84765143,5.84749381 4.87112857,5.00021354 5.04695429,4.64956049 C5.51547714,4.58923641 6.14834857,4.84347005 6.52347714,5.19359215 C6.96852286,5.04869756 7.43756857,4.97597595 8.012,4.97597595 C8.58590857,4.97597595 9.05495429,5.04869756 9.47652286,5.18174326 C9.83968571,4.84293911 10.4845143,4.58923641 10.9530286,4.64956049 C11.1174286,4.97597595 11.1408286,5.82325622 10.988,6.2342422 C11.3636857,6.69423429 11.5624571,7.31151852 11.5624571,7.94011185 C11.5624571,9.42836529 10.4725143,10.5535947 8.90260571,10.7593355 C9.30069714,11.0254268 9.57043143,11.6061025 9.57043143,12.2712867 L9.57043143,13.5295353 C9.57043143,13.8926124 9.86317143,14.0983531 10.2147714,13.952963 C12.3362,13.1180537 14,10.9284411 14,8.21858307 C14,4.79445508 11.3047143,2 7.98852286,2 C4.67130286,2 2,4.79445508 2,8.21858307 C2,10.9041947 3.65234857,13.1309734 5.87912857,13.9653517 C6.19530286,14.0864954 6.5,13.868366 6.5,13.5419239 L6.5,12.5734823 C6.32170571,12.6503806 6.13078571,12.6913518 5.93756857,12.694095 C5.16382571,12.694095 4.70678,12.258898 4.37912857,11.4482352 C4.25025714,11.1213507 4.10939429,10.9279101 3.83965143,10.891806 C3.69878,10.8794173 3.65234857,10.8191551 3.65234857,10.7464158 C3.65234857,10.6010257 3.88712857,10.4927131 4.12087143,10.4927131 C4.46104571,10.4927131 4.75374286,10.7103116 5.05843143,11.1578973 C5.29322,11.5085858 5.53895429,11.6658337 5.83217429,11.6658337 C6.12487143,11.6658337 6.31217429,11.5570787 6.58190857,11.2785986 C6.78122,11.0733888 6.93356857,10.8924254 7.07443143,10.7711932 Z" id="路径" fill="#17181C"></path>
    </g>
</svg>