<?xml version="1.0" encoding="UTF-8"?>
<svg width="16px" height="16px" viewBox="0 0 16 16" version="1.1" xmlns="http://www.w3.org/2000/svg" xmlns:xlink="http://www.w3.org/1999/xlink">
    <title>grok-light</title>
    <g id="grok-light" stroke="none" fill="none">
        <path d="M2,8 C2,5.8998125 2,4.84969531 2.40872656,4.04753516 C2.76825078,3.34192812 3.34192812,2.76825078 4.04753516,2.40872656 C4.84969531,2 5.8998125,2 8,2 C10.1001875,2 11.1503047,2 11.9524531,2.40872656 C12.6580625,2.76825078 13.2317422,3.34192812 13.5912734,4.04753516 C14,4.84969531 14,5.8998125 14,8 C14,10.1001875 14,11.1503047 13.5912734,11.9524531 C13.2317422,12.6580625 12.6580625,13.2317422 11.9524531,13.5912734 C11.1503047,14 10.1001875,14 8,14 C5.8998125,14 4.84969531,14 4.04753516,13.5912734 C3.34192812,13.2317422 2.76825078,12.6580625 2.40872656,11.9524531 C2,11.1503047 2,10.1001875 2,8 Z" id="路径" fill="#050505" fill-rule="evenodd"></path>
        <path d="M6.93321875,9.33028906 L10.0499609,6.93085156 C10.20275,6.81321875 10.4211406,6.85910938 10.4939375,7.04180469 C10.8771406,8.00541406 10.7059531,9.1634375 9.94355469,9.95850781 C9.18117969,10.7536016 8.12039844,10.9279766 7.1508125,10.5308516 L6.09164844,11.0422578 C7.61079687,12.1251875 9.4555625,11.8573672 10.6083359,10.6543203 C11.5227266,9.70071875 11.8059219,8.400875 11.541125,7.22869531 L11.5435156,7.23120313 C11.1595391,5.50920313 11.6379219,4.82091406 12.6178906,3.41345 C12.6410937,3.38007734 12.6642969,3.34670703 12.6875,3.3125 L11.3979219,4.65739063 L11.3979219,4.65321875 L6.93242187,9.33110938 M6.29004687,9.91346094 C5.19966406,8.82720312 5.38765625,7.14610156 6.31803125,6.17663281 C7.00601562,5.45914062 8.13319531,5.1663125 9.11717187,5.5968125 L10.1739453,5.08789062 C9.9835625,4.94438281 9.73955469,4.79004687 9.45957031,4.68157812 C8.19399219,4.13845391 6.67882812,4.40876562 5.65003906,5.48084375 C4.66046094,6.51286719 4.34928125,8.09970312 4.88365625,9.45375781 C5.28286719,10.4657656 4.62846875,11.1815937 3.96928672,11.9041016 C3.73568984,12.1602266 3.50129609,12.4163516 3.3125,12.6875 L6.28922656,9.91430469" id="形状结合" fill="#FFFFFF" fill-rule="nonzero"></path>
    </g>
</svg>