<svg width="16" height="16" viewBox="0 0 16 16" fill="none" xmlns="http://www.w3.org/2000/svg">
<path d="M14.7358 7.37682L8.62342 1.26385C8.45432 1.0949 8.22507 1 7.98603 1C7.747 1 7.51775 1.0949 7.34865 1.26385L6.07935 2.5326L7.68935 4.14314C7.87923 4.07836 8.08349 4.06825 8.27884 4.11397C8.47418 4.15969 8.65274 4.25939 8.79415 4.40171C8.93555 4.54403 9.03411 4.72323 9.07857 4.91886C9.12303 5.1145 9.11161 5.31869 9.0456 5.50814L10.5971 7.06017C10.829 6.98045 11.0812 6.98261 11.3117 7.0663C11.5422 7.14998 11.7371 7.31014 11.8638 7.52008C11.9906 7.73001 12.0415 7.97705 12.0082 8.22C11.9749 8.46296 11.8594 8.68716 11.6808 8.85524C11.5022 9.02332 11.2714 9.12512 11.0269 9.14368C10.7824 9.16225 10.5389 9.09644 10.337 8.95724C10.1351 8.81805 9.98703 8.61386 9.91743 8.37872C9.84782 8.14358 9.86091 7.89168 9.95451 7.66502L8.50748 6.21744V10.0259C8.72742 10.1346 8.90345 10.3155 9.00621 10.5383C9.10898 10.7611 9.13227 11.0124 9.07222 11.2503C9.01216 11.4882 8.87238 11.6983 8.67618 11.8457C8.47998 11.993 8.2392 12.0686 7.99399 12.06C7.74878 12.0513 7.51395 11.9589 7.32863 11.7981C7.14332 11.6372 7.01872 11.4178 6.97561 11.1762C6.9325 10.9347 6.97347 10.6856 7.09171 10.4706C7.20995 10.2556 7.3983 10.0877 7.62537 9.99471V6.15182C7.49436 6.09814 7.37527 6.01906 7.27498 5.91913C7.17469 5.8192 7.09518 5.7004 7.04103 5.56959C6.98689 5.43877 6.95918 5.29853 6.95951 5.15696C6.95984 5.01538 6.9882 4.87527 7.04295 4.74471L5.45482 3.15713L1.26412 7.34838C1.09501 7.5175 1 7.74687 1 7.98603C1 8.2252 1.09501 8.45457 1.26412 8.62369L7.37654 14.7361C7.54566 14.9052 7.77503 15.0002 8.0142 15.0002C8.25336 15.0002 8.48274 14.9052 8.65185 14.7361L14.7358 8.65213C14.905 8.48292 15 8.25345 15 8.0142C15 7.77494 14.905 7.54603 14.7358 7.37682Z" fill="#D75A3E"/>
</svg>
