<?xml version="1.0" encoding="UTF-8"?>
<svg width="16px" height="16px" viewBox="0 0 16 16" version="1.1" xmlns="http://www.w3.org/2000/svg" xmlns:xlink="http://www.w3.org/1999/xlink">
    <title>lazygit-light</title>
    <g id="lazygit-light" stroke="none" fill="none" fill-rule="evenodd">
        <g id="图形">
            <g id="Branch-Fork" stroke-width="1" transform="translate(2, 1)" fill="#000000">
                <path d="M3,4.94999 C4.14112,4.71836 5,3.70948 5,2.5 C5,1.11929 3.88071,0 2.5,0 C1.11929,0 0,1.11929 0,2.5 C0,3.70948 0.85888,4.71836 2,4.94999 L2,9.05 C0.85888,9.2816 0,10.2905 0,11.5 C0,12.8807 1.11929,14 2.5,14 C3.88071,14 5,12.8807 5,11.5 C5,10.2905 4.14112,9.2816 3,9.05 L3,8 L7.5,8 C8.8807,8 10,6.88071 10,5.5 L10,4.94999 C11.1411,4.71836 12,3.70948 12,2.5 C12,1.11929 10.8807,0 9.5,0 C8.1193,0 7,1.11929 7,2.5 C7,3.70948 7.85888,4.71836 9,4.94999 L9,5.5 C9,6.32843 8.3284,7 7.5,7 L3,7 L3,4.94999 Z M2.5,4 C1.67157,4 1,3.32843 1,2.5 C1,1.67157 1.67157,1 2.5,1 C3.32843,1 4,1.67157 4,2.5 C4,3.32843 3.32843,4 2.5,4 Z M9.5,4 C8.6716,4 8,3.32843 8,2.5 C8,1.67157 8.6716,1 9.5,1 C10.3284,1 11,1.67157 11,2.5 C11,3.32843 10.3284,4 9.5,4 Z M4,11.5 C4,12.3284 3.32843,13 2.5,13 C1.67157,13 1,12.3284 1,11.5 C1,10.6716 1.67157,10 2.5,10 C3.32843,10 4,10.6716 4,11.5 Z" id="形状" fill-rule="nonzero"></path>
            </g>
            <circle id="椭圆形" fill="#FF59FF" cx="4.5" cy="3.5" r="1.5"></circle>
            <circle id="椭圆形" fill="#00D977" cx="11.5" cy="3.5" r="1.5"></circle>
            <circle id="椭圆形" fill="#00FFFF" cx="4.5" cy="12.5" r="1.5"></circle>
        </g>
    </g>
</svg>